<?xml version="1.0" encoding="utf-8"?>
<!-- Generator: Adobe Illustrator 27.5.0, SVG Export Plug-In . SVG Version: 6.00 Build 0)  -->
<svg version="1.1" id="Layer_1" xmlns="http://www.w3.org/2000/svg" xmlns:xlink="http://www.w3.org/1999/xlink" x="0px" y="0px"
	 viewBox="0 0 500 500" style="enable-background:new 0 0 500 500;" xml:space="preserve">
<style type="text/css">
	.st0{fill:#FFFFFF;}
	.st1{fill:#0A0203;}
</style>
<g>
	<g>
		<path class="st1" d="M250,433.95c-101.43,0-183.95-82.52-183.95-183.95S148.57,66.05,250,66.05
			c101.43,0,183.95,82.52,183.95,183.95S351.43,433.95,250,433.95z M250,83.95c-91.56,0-166.05,74.49-166.05,166.05
			S158.44,416.05,250,416.05S416.05,341.56,416.05,250S341.56,83.95,250,83.95z"/>
	</g>
	<g>
		<path class="st1" d="M213,186.18c0.69,2.1,1.06,4.33,1.06,6.59v38.86c0,7.1-1.03,14.13-3.04,20.88
			c-1.83,6.14-3.79,11.61-5.86,16.4v0.01c-2.61,6.04-5.4,11-8.34,14.81c-0.4,0.53-1.04,0.84-1.71,0.84H150
			c-1.39,0-2.74,0.27-3.99,0.79c-1.27,0.52-2.44,1.29-3.43,2.3c-2,2-3.09,4.66-3.08,7.5c0.05,12.79-1.5,19.81-4.76,33.45
			c-1.14,4.77-0.09,9.72,2.89,13.59c2.99,3.88,7.53,6.17,12.44,6.28c36.41,0.88,68.03,15.19,96.67,37.61l3.24,2.55l3.25-2.54
			c28.65-22.42,60.27-36.73,96.68-37.62c4.91-0.11,9.45-2.4,12.44-6.28c2.98-3.86,4.04-8.82,2.89-13.59
			c-3.26-13.64-4.81-20.66-4.76-33.46c0.01-2.83-1.08-5.48-3.08-7.48c-0.99-1-2.16-1.78-3.42-2.31c-1.26-0.52-2.61-0.79-4.01-0.79
			h-45.1c-0.66,0-1.3-0.31-1.71-0.84c-2.95-3.81-5.73-8.76-8.34-14.81v-0.01c-2.07-4.79-4.02-10.26-5.85-16.4
			c-2.02-6.76-3.04-13.78-3.04-20.88v-38.86c0-2.27,0.37-4.49,1.06-6.6l1.25-3.05c1.49-2.97,3.67-5.6,6.39-7.64
			c2.9-2.17,5.91-4.25,8.97-6.19c6.38-9.03,8.71-20.04,7.03-32.99c-0.35-2.65-0.86-5.39-1.54-8.19c-0.81,0-1.63-0.01-2.44-0.02
			c-18.63-0.31-36.01-4.52-52.25-12.3c-1.48-0.7-2.95-1.44-4.4-2.2c-1.46,0.77-2.92,1.5-4.4,2.2c-16.24,7.78-33.63,11.99-52.26,12.3
			c-0.81,0.01-1.62,0.02-2.43,0.02c-0.68,2.78-1.19,5.49-1.53,8.12c-1.71,12.99,0.63,24.02,7.03,33.08
			c3.05,1.94,6.07,4.01,8.95,6.18c2.73,2.04,4.9,4.67,6.4,7.64L213,186.18z"/>
	</g>
</g>
</svg>
