<?xml version="1.0" encoding="utf-8"?>
<!-- Generator: Adobe Illustrator 27.5.0, SVG Export Plug-In . SVG Version: 6.00 Build 0)  -->
<svg version="1.1" id="Layer_1" xmlns="http://www.w3.org/2000/svg" xmlns:xlink="http://www.w3.org/1999/xlink" x="0px" y="0px"
	 viewBox="0 0 500 500" style="enable-background:new 0 0 500 500;" xml:space="preserve">
<style type="text/css">
	.st0{fill:#FFFFFF;}
	.st1{fill:#0A0203;}
	.st2{fill:none;stroke:#0A0203;stroke-width:17.8925;stroke-miterlimit:10;}
	.st3{fill:none;stroke:#0A0203;stroke-width:10.261;stroke-miterlimit:10;}
	.st4{fill:none;stroke:#FFFFFF;stroke-width:10.261;stroke-miterlimit:10;}
	.st5{fill:none;stroke:#FFFFFF;stroke-width:17.8925;stroke-miterlimit:10;}
</style>
<rect y="1191.83" class="st0" width="500" height="500"/>
<rect x="577.29" y="1191.83" class="st1" width="500" height="500"/>
<g>
	<circle class="st2" cx="250" cy="895.13" r="175"/>
	<path class="st1" d="M213,831.31c0.69,2.1,1.06,4.33,1.06,6.59v38.86c0,7.1-1.03,14.13-3.04,20.88c-1.83,6.14-3.79,11.61-5.86,16.4
		v0.01c-2.61,6.04-5.4,11-8.34,14.81c-0.4,0.53-1.04,0.84-1.71,0.84H150c-1.39,0-2.74,0.27-3.99,0.79c-1.27,0.52-2.44,1.29-3.43,2.3
		c-2,2-3.09,4.66-3.08,7.5c0.05,12.79-1.5,19.81-4.76,33.45c-1.14,4.77-0.09,9.72,2.89,13.59c2.99,3.88,7.53,6.17,12.44,6.28
		c36.41,0.88,68.03,15.19,96.67,37.61l3.24,2.55l3.25-2.54c28.65-22.42,60.27-36.73,96.68-37.62c4.91-0.11,9.45-2.4,12.44-6.28
		c2.98-3.86,4.04-8.82,2.89-13.59c-3.26-13.64-4.81-20.66-4.76-33.46c0.01-2.83-1.08-5.48-3.08-7.48c-0.99-1-2.16-1.78-3.42-2.31
		c-1.26-0.52-2.61-0.79-4.01-0.79h-45.1c-0.66,0-1.3-0.31-1.71-0.84c-2.95-3.81-5.73-8.76-8.34-14.81v-0.01
		c-2.07-4.79-4.02-10.26-5.85-16.4c-2.02-6.76-3.04-13.78-3.04-20.88V837.9c0-2.27,0.37-4.49,1.06-6.6l1.25-3.05
		c1.49-2.97,3.67-5.6,6.39-7.64c2.9-2.17,5.91-4.25,8.97-6.19c6.38-9.03,8.71-20.04,7.03-32.99c-0.35-2.65-0.86-5.39-1.54-8.19
		c-0.81,0-1.63-0.01-2.44-0.02c-18.63-0.31-36.01-4.52-52.25-12.3c-1.48-0.7-2.95-1.44-4.4-2.2c-1.46,0.77-2.92,1.5-4.4,2.2
		c-16.24,7.78-33.63,11.99-52.26,12.3c-0.81,0.01-1.62,0.02-2.43,0.02c-0.68,2.78-1.19,5.49-1.53,8.12
		c-1.71,12.99,0.63,24.02,7.03,33.08c3.05,1.94,6.07,4.01,8.95,6.18c2.73,2.04,4.9,4.67,6.4,7.64L213,831.31z"/>
</g>
<rect y="0" class="st0" width="500" height="500"/>
<rect x="577.29" y="0" class="st1" width="500" height="500"/>
<g>
	<circle class="st3" cx="250" cy="188.08" r="100.36"/>
	<g>
		<path class="st1" d="M80.75,339.64c0-2.33,1-3.33,3.33-3.33h18.66c17.16,0,26.66,10.33,26.66,29.15s-9.5,29.15-26.66,29.15H84.08
			c-2.33,0-3.33-1-3.33-3.33V339.64z M102.74,383.71c8.91,0,13.49-6.41,13.49-18.24s-4.58-18.24-13.49-18.24h-9.08v36.48H102.74z"/>
		<path class="st1" d="M158.29,350.39c13.08,0,17.99,9.91,17.99,21.49c0,1.42-3.17,4.91-4.25,4.91H150.8
			c0.58,6.66,4.16,8.75,9.58,8.75c5.25,0,8.91-2.58,10.08-2.58c1.83,0,4.33,4.67,4.33,6.33c0,4.17-10.33,6-14.99,6
			c-15.08,0-21.74-8.75-21.74-22.16C138.05,356.72,146.38,350.39,158.29,350.39z M164.29,368.55c0-4.83-1.83-8.41-6-8.41
			c-3.5,0-6.5,2-7.5,8.41H164.29z"/>
		<path class="st1" d="M186.03,353.55c0-1.75,1.5-2.67,5-2.67h2.33c3.5,0,5,0.92,5,2.67v26.41c0,3.25,1.33,5.16,5,5.16
			c3.42,0,5.66-2.92,6.66-4.83v-26.74c0-1.75,1.5-2.67,5-2.67h2.33c3.5,0,5,0.92,5,2.67v26.41c0,8.58,1,10.33,1,12.08
			c0,2-7.25,2.67-9.33,2.67c-2.67,0-2.83-3.5-3.33-5.75c-2.42,3.17-7,6.33-12.41,6.33c-8.33,0-12.24-4.25-12.24-13.49V353.55z"/>
		<path class="st1" d="M256.58,338.81c0-1.75,1.5-2.67,5-2.67h2.83c3.5,0,5,0.92,5,2.67v44.9h18.58c1.75,0,2.5,1.25,2.5,4.17v2.58
			c0,2.92-0.75,4.17-2.5,4.17h-28.07c-2.33,0-3.33-1-3.33-3.33V338.81z"/>
		<path class="st1" d="M320.22,367.63v-2.75c0-3.17-1.92-4.75-6.5-4.75c-6.08,0-9.66,2.67-10.66,2.67c-1.75,0-4.33-4.92-4.33-6.66
			c0-2.83,6.66-5.75,15.91-5.75c13.16,0,17.91,5.83,17.91,13.91v15.66c0,8.58,1,10.33,1,12.08c0,2-7.25,2.67-9.33,2.67
			c-2.67,0-2.83-3.5-3.33-5.75c-0.58,1.08-4.58,6.33-12.25,6.33c-9,0-12.33-5.33-12.33-12.16S299.06,367.63,320.22,367.63z
			 M312.72,385.54c3.17,0,6.16-2.25,7.5-5.25v-4.58c-7.91,0-11.66,2.17-11.66,6.16C308.55,383.96,309.97,385.54,312.72,385.54z"/>
		<path class="st1" d="M345.37,334.48c0-1.75,1.5-2.67,5-2.67h2.33c3.5,0,5,0.92,5,2.67v18.49c1.75-1.25,4.58-2.58,8.5-2.58
			c11.25,0,17.58,8.83,17.58,22.41c0,14.49-6.58,22.49-15.58,22.49c-5.16,0-9.25-2.67-11.16-6.25l-0.83,3.58
			c-0.42,1.83-2.17,2.17-4.83,2.17h-1c-3.5,0-5-0.92-5-2.67V334.48z M364.53,385.21c4.58,0,6.75-4.33,6.75-12.41
			c0-8.33-2.5-12.66-7.75-12.66c-2.58,0-4.5,0.83-5.83,1.58v18.58C359.2,382.87,361.36,385.21,364.53,385.21z"/>
		<path class="st1" d="M395.93,383.21c1.08,0,4.25,2.33,8.16,2.33c3.5,0,5.08-1.25,5.08-3.75c0-7.33-16.66-3-16.66-17.91
			c0-8.33,5.91-13.49,15.33-13.49c2.75,0,12.33,0.58,12.33,5.25c0,1.08-1.92,6.16-3.58,6.16c-0.83,0-3.33-1.75-7.08-1.75
			c-2.83,0-4.5,0.92-4.5,3c0,6.08,16.66,2.92,16.66,17.74c0,8.75-6.25,14.49-15.58,14.49c-7.25,0-14.58-1.92-14.58-5.91
			C391.51,387.71,394.18,383.21,395.93,383.21z"/>
	</g>
	<path class="st1" d="M271.94,149.72c0.85-1.7,2.1-3.21,3.66-4.38c1.67-1.24,3.39-2.44,5.14-3.55c3.66-5.18,4.99-11.49,4.03-18.92
		c-0.2-1.52-0.49-3.09-0.88-4.7c-0.46,0-0.93-0.01-1.4-0.01c-10.68-0.18-20.65-2.59-29.97-7.06c-0.85-0.4-1.69-0.82-2.53-1.26
		c-0.84,0.44-1.68,0.86-2.53,1.26c-9.31,4.46-19.28,6.88-29.97,7.06c-0.46,0.01-0.93,0.01-1.39,0.01c-0.39,1.6-0.68,3.15-0.88,4.65
		c-0.98,7.45,0.36,13.78,4.03,18.97c1.75,1.11,3.48,2.3,5.13,3.55c1.57,1.17,2.81,2.68,3.67,4.38l0.72,1.76
		c0.4,1.21,0.61,2.48,0.61,3.78v22.29c0,4.07-0.59,8.1-1.75,11.98c-1.05,3.52-2.17,6.66-3.36,9.41v0.01
		c-1.5,3.47-3.09,6.31-4.78,8.49c-0.23,0.3-0.59,0.48-0.98,0.48h-25.86c-0.8,0-1.57,0.15-2.29,0.45c-0.73,0.3-1.4,0.74-1.97,1.32
		c-1.14,1.14-1.77,2.67-1.76,4.3c0.03,7.33-0.86,11.36-2.73,19.19c-0.66,2.74-0.05,5.58,1.66,7.79c1.71,2.23,4.32,3.54,7.14,3.6
		c20.88,0.51,39.01,8.71,55.44,21.57l1.86,1.46l1.86-1.45c16.43-12.86,34.56-21.07,55.45-21.57c2.82-0.06,5.42-1.37,7.14-3.6
		c1.71-2.22,2.31-5.06,1.66-7.79c-1.87-7.82-2.76-11.85-2.73-19.19c0.01-1.62-0.62-3.14-1.76-4.29c-0.57-0.58-1.24-1.02-1.96-1.32
		c-0.72-0.3-1.5-0.45-2.3-0.45h-25.86c-0.38,0-0.74-0.18-0.98-0.48c-1.69-2.18-3.29-5.03-4.78-8.49v-0.01
		c-1.19-2.75-2.3-5.89-3.35-9.41c-1.16-3.87-1.74-7.9-1.74-11.98v-22.29c0-1.3,0.21-2.57,0.61-3.79L271.94,149.72z"/>
</g>
<g>
	<circle class="st4" cx="827.29" cy="188.08" r="100.36"/>
	<g>
		<path class="st0" d="M658.04,339.64c0-2.33,1-3.33,3.33-3.33h18.66c17.16,0,26.66,10.33,26.66,29.15s-9.5,29.15-26.66,29.15
			h-18.66c-2.33,0-3.33-1-3.33-3.33V339.64z M680.03,383.71c8.91,0,13.49-6.41,13.49-18.24s-4.58-18.24-13.49-18.24h-9.08v36.48
			H680.03z"/>
		<path class="st0" d="M735.58,350.39c13.08,0,17.99,9.91,17.99,21.49c0,1.42-3.17,4.91-4.25,4.91h-21.24
			c0.58,6.66,4.17,8.75,9.58,8.75c5.25,0,8.91-2.58,10.08-2.58c1.83,0,4.33,4.67,4.33,6.33c0,4.17-10.33,6-14.99,6
			c-15.08,0-21.74-8.75-21.74-22.16C715.34,356.72,723.67,350.39,735.58,350.39z M741.58,368.55c0-4.83-1.83-8.41-6-8.41
			c-3.5,0-6.5,2-7.5,8.41H741.58z"/>
		<path class="st0" d="M763.32,353.55c0-1.75,1.5-2.67,5-2.67h2.33c3.5,0,5,0.92,5,2.67v26.41c0,3.25,1.33,5.16,5,5.16
			c3.42,0,5.66-2.92,6.66-4.83v-26.74c0-1.75,1.5-2.67,5-2.67h2.33c3.5,0,5,0.92,5,2.67v26.41c0,8.58,1,10.33,1,12.08
			c0,2-7.25,2.67-9.33,2.67c-2.67,0-2.83-3.5-3.33-5.75c-2.42,3.17-7,6.33-12.41,6.33c-8.33,0-12.25-4.25-12.25-13.49V353.55z"/>
		<path class="st0" d="M833.87,338.81c0-1.75,1.5-2.67,5-2.67h2.83c3.5,0,5,0.92,5,2.67v44.9h18.58c1.75,0,2.5,1.25,2.5,4.17v2.58
			c0,2.92-0.75,4.17-2.5,4.17H837.2c-2.33,0-3.33-1-3.33-3.33V338.81z"/>
		<path class="st0" d="M897.51,367.63v-2.75c0-3.17-1.92-4.75-6.5-4.75c-6.08,0-9.66,2.67-10.66,2.67c-1.75,0-4.33-4.92-4.33-6.66
			c0-2.83,6.66-5.75,15.91-5.75c13.16,0,17.91,5.83,17.91,13.91v15.66c0,8.58,1,10.33,1,12.08c0,2-7.25,2.67-9.33,2.67
			c-2.67,0-2.83-3.5-3.33-5.75c-0.58,1.08-4.58,6.33-12.25,6.33c-9,0-12.33-5.33-12.33-12.16S876.35,367.63,897.51,367.63z
			 M890.01,385.54c3.17,0,6.16-2.25,7.5-5.25v-4.58c-7.91,0-11.66,2.17-11.66,6.16C885.85,383.96,887.26,385.54,890.01,385.54z"/>
		<path class="st0" d="M922.66,334.48c0-1.75,1.5-2.67,5-2.67h2.33c3.5,0,5,0.92,5,2.67v18.49c1.75-1.25,4.58-2.58,8.5-2.58
			c11.25,0,17.58,8.83,17.58,22.41c0,14.49-6.58,22.49-15.58,22.49c-5.16,0-9.25-2.67-11.16-6.25l-0.83,3.58
			c-0.42,1.83-2.17,2.17-4.83,2.17h-1c-3.5,0-5-0.92-5-2.67V334.48z M941.82,385.21c4.58,0,6.75-4.33,6.75-12.41
			c0-8.33-2.5-12.66-7.75-12.66c-2.58,0-4.5,0.83-5.83,1.58v18.58C936.49,382.87,938.66,385.21,941.82,385.21z"/>
		<path class="st0" d="M973.22,383.21c1.08,0,4.25,2.33,8.16,2.33c3.5,0,5.08-1.25,5.08-3.75c0-7.33-16.66-3-16.66-17.91
			c0-8.33,5.91-13.49,15.33-13.49c2.75,0,12.33,0.58,12.33,5.25c0,1.08-1.92,6.16-3.58,6.16c-0.83,0-3.33-1.75-7.08-1.75
			c-2.83,0-4.5,0.92-4.5,3c0,6.08,16.66,2.92,16.66,17.74c0,8.75-6.25,14.49-15.58,14.49c-7.25,0-14.58-1.92-14.58-5.91
			C968.81,387.71,971.47,383.21,973.22,383.21z"/>
	</g>
	<path class="st0" d="M806.07,151.48c0.4,1.21,0.61,2.48,0.61,3.78v22.29c0,4.07-0.59,8.1-1.75,11.98
		c-1.05,3.52-2.17,6.66-3.36,9.41v0.01c-1.5,3.47-3.09,6.31-4.78,8.49c-0.23,0.3-0.59,0.48-0.98,0.48h-25.86
		c-0.8,0-1.57,0.15-2.29,0.45c-0.73,0.3-1.4,0.74-1.97,1.32c-1.14,1.14-1.77,2.67-1.76,4.3c0.03,7.33-0.86,11.36-2.73,19.19
		c-0.66,2.74-0.05,5.58,1.66,7.79c1.71,2.23,4.32,3.54,7.14,3.6c20.88,0.51,39.01,8.71,55.44,21.57l1.86,1.46l1.86-1.45
		c16.43-12.86,34.56-21.07,55.45-21.57c2.82-0.06,5.42-1.37,7.14-3.6c1.71-2.22,2.31-5.06,1.66-7.79
		c-1.87-7.82-2.76-11.85-2.73-19.19c0.01-1.62-0.62-3.14-1.76-4.29c-0.57-0.58-1.24-1.02-1.96-1.32c-0.72-0.3-1.5-0.45-2.3-0.45
		h-25.86c-0.38,0-0.74-0.18-0.98-0.48c-1.69-2.18-3.29-5.03-4.78-8.49v-0.01c-1.19-2.75-2.3-5.89-3.35-9.41
		c-1.16-3.87-1.74-7.9-1.74-11.98v-22.29c0-1.3,0.21-2.57,0.61-3.79l0.72-1.75c0.85-1.7,2.1-3.21,3.66-4.38
		c1.67-1.24,3.39-2.44,5.14-3.55c3.66-5.18,4.99-11.49,4.03-18.92c-0.2-1.52-0.49-3.09-0.88-4.7c-0.46,0-0.93-0.01-1.4-0.01
		c-10.68-0.18-20.65-2.59-29.97-7.06c-0.85-0.4-1.69-0.82-2.53-1.26c-0.84,0.44-1.68,0.86-2.53,1.26
		c-9.31,4.46-19.28,6.88-29.97,7.06c-0.46,0.01-0.93,0.01-1.39,0.01c-0.39,1.6-0.68,3.15-0.88,4.65
		c-0.98,7.45,0.36,13.78,4.03,18.97c1.75,1.11,3.48,2.3,5.13,3.55c1.57,1.17,2.81,2.68,3.67,4.38L806.07,151.48z"/>
</g>
<g>
	<circle class="st3" cx="250" cy="-358.62" r="100.36"/>
	<g>
		<path class="st1" d="M80.75-207.05c0-2.33,1-3.33,3.33-3.33h18.66c17.16,0,26.66,10.33,26.66,29.15s-9.5,29.15-26.66,29.15H84.08
			c-2.33,0-3.33-1-3.33-3.33V-207.05z M102.74-162.99c8.91,0,13.49-6.41,13.49-18.24s-4.58-18.24-13.49-18.24h-9.08v36.48H102.74z"
			/>
		<path class="st1" d="M158.29-196.31c13.08,0,17.99,9.91,17.99,21.49c0,1.42-3.17,4.91-4.25,4.91H150.8
			c0.58,6.66,4.16,8.75,9.58,8.75c5.25,0,8.91-2.58,10.08-2.58c1.83,0,4.33,4.67,4.33,6.33c0,4.17-10.33,6-14.99,6
			c-15.08,0-21.74-8.75-21.74-22.16C138.05-189.98,146.38-196.31,158.29-196.31z M164.29-178.15c0-4.83-1.83-8.41-6-8.41
			c-3.5,0-6.5,2-7.5,8.41H164.29z"/>
		<path class="st1" d="M186.03-193.14c0-1.75,1.5-2.67,5-2.67h2.33c3.5,0,5,0.92,5,2.67v26.41c0,3.25,1.33,5.16,5,5.16
			c3.42,0,5.66-2.92,6.66-4.83v-26.74c0-1.75,1.5-2.67,5-2.67h2.33c3.5,0,5,0.92,5,2.67v26.41c0,8.58,1,10.33,1,12.08
			c0,2-7.25,2.67-9.33,2.67c-2.67,0-2.83-3.5-3.33-5.75c-2.42,3.17-7,6.33-12.41,6.33c-8.33,0-12.24-4.25-12.24-13.49V-193.14z"/>
		<path class="st1" d="M256.58-207.89c0-1.75,1.5-2.67,5-2.67h2.83c3.5,0,5,0.92,5,2.67v44.9h18.58c1.75,0,2.5,1.25,2.5,4.17v2.58
			c0,2.92-0.75,4.17-2.5,4.17h-28.07c-2.33,0-3.33-1-3.33-3.33V-207.89z"/>
		<path class="st1" d="M320.22-179.07v-2.75c0-3.17-1.92-4.75-6.5-4.75c-6.08,0-9.66,2.67-10.66,2.67c-1.75,0-4.33-4.92-4.33-6.66
			c0-2.83,6.66-5.75,15.91-5.75c13.16,0,17.91,5.83,17.91,13.91v15.66c0,8.58,1,10.33,1,12.08c0,2-7.25,2.67-9.33,2.67
			c-2.67,0-2.83-3.5-3.33-5.75c-0.58,1.08-4.58,6.33-12.25,6.33c-9,0-12.33-5.33-12.33-12.16S299.06-179.07,320.22-179.07z
			 M312.72-161.16c3.17,0,6.16-2.25,7.5-5.25v-4.58c-7.91,0-11.66,2.17-11.66,6.16C308.55-162.74,309.97-161.16,312.72-161.16z"/>
		<path class="st1" d="M345.37-212.22c0-1.75,1.5-2.67,5-2.67h2.33c3.5,0,5,0.92,5,2.67v18.49c1.75-1.25,4.58-2.58,8.5-2.58
			c11.25,0,17.58,8.83,17.58,22.41c0,14.49-6.58,22.49-15.58,22.49c-5.16,0-9.25-2.67-11.16-6.25l-0.83,3.58
			c-0.42,1.83-2.17,2.17-4.83,2.17h-1c-3.5,0-5-0.92-5-2.67V-212.22z M364.53-161.49c4.58,0,6.75-4.33,6.75-12.41
			c0-8.33-2.5-12.66-7.75-12.66c-2.58,0-4.5,0.83-5.83,1.58v18.58C359.2-163.82,361.36-161.49,364.53-161.49z"/>
		<path class="st1" d="M395.93-163.49c1.08,0,4.25,2.33,8.16,2.33c3.5,0,5.08-1.25,5.08-3.75c0-7.33-16.66-3-16.66-17.91
			c0-8.33,5.91-13.49,15.33-13.49c2.75,0,12.33,0.58,12.33,5.25c0,1.08-1.92,6.16-3.58,6.16c-0.83,0-3.33-1.75-7.08-1.75
			c-2.83,0-4.5,0.92-4.5,3c0,6.08,16.66,2.92,16.66,17.74c0,8.75-6.25,14.49-15.58,14.49c-7.25,0-14.58-1.92-14.58-5.91
			C391.51-158.99,394.18-163.49,395.93-163.49z"/>
	</g>
	<path class="st1" d="M271.94-396.98c0.85-1.7,2.1-3.21,3.66-4.38c1.67-1.24,3.39-2.44,5.14-3.55c3.66-5.18,4.99-11.49,4.03-18.92
		c-0.2-1.52-0.49-3.09-0.88-4.7c-0.46,0-0.93-0.01-1.4-0.01c-10.68-0.18-20.65-2.59-29.97-7.06c-0.85-0.4-1.69-0.82-2.53-1.26
		c-0.84,0.44-1.68,0.86-2.53,1.26c-9.31,4.46-19.28,6.88-29.97,7.06c-0.46,0.01-0.93,0.01-1.39,0.01c-0.39,1.6-0.68,3.15-0.88,4.65
		c-0.98,7.45,0.36,13.78,4.03,18.97c1.75,1.11,3.48,2.3,5.13,3.55c1.57,1.17,2.81,2.68,3.67,4.38l0.72,1.76
		c0.4,1.21,0.61,2.48,0.61,3.78v22.29c0,4.07-0.59,8.1-1.75,11.98c-1.05,3.52-2.17,6.66-3.36,9.41v0.01
		c-1.5,3.47-3.09,6.31-4.78,8.49c-0.23,0.3-0.59,0.48-0.98,0.48h-25.86c-0.8,0-1.57,0.15-2.29,0.45c-0.73,0.3-1.4,0.74-1.97,1.32
		c-1.14,1.14-1.77,2.67-1.76,4.3c0.03,7.33-0.86,11.36-2.73,19.19c-0.66,2.74-0.05,5.58,1.66,7.79c1.71,2.23,4.32,3.54,7.14,3.6
		c20.88,0.51,39.01,8.71,55.44,21.57l1.86,1.46l1.86-1.45c16.43-12.86,34.56-21.07,55.45-21.57c2.82-0.06,5.42-1.37,7.14-3.6
		c1.71-2.22,2.31-5.06,1.66-7.79c-1.87-7.82-2.76-11.85-2.73-19.19c0.01-1.62-0.62-3.14-1.76-4.29c-0.57-0.58-1.24-1.02-1.96-1.32
		c-0.72-0.3-1.5-0.45-2.3-0.45h-25.86c-0.38,0-0.74-0.18-0.98-0.48c-1.69-2.18-3.29-5.03-4.78-8.49v-0.01
		c-1.19-2.75-2.3-5.89-3.35-9.41c-1.16-3.87-1.74-7.9-1.74-11.98v-22.29c0-1.3,0.21-2.57,0.61-3.79L271.94-396.98z"/>
</g>
<g>
	<circle class="st4" cx="827.29" cy="-358.62" r="100.36"/>
	<g>
		<path class="st0" d="M658.04-207.05c0-2.33,1-3.33,3.33-3.33h18.66c17.16,0,26.66,10.33,26.66,29.15s-9.5,29.15-26.66,29.15
			h-18.66c-2.33,0-3.33-1-3.33-3.33V-207.05z M680.03-162.99c8.91,0,13.49-6.41,13.49-18.24s-4.58-18.24-13.49-18.24h-9.08v36.48
			H680.03z"/>
		<path class="st0" d="M735.58-196.31c13.08,0,17.99,9.91,17.99,21.49c0,1.42-3.17,4.91-4.25,4.91h-21.24
			c0.58,6.66,4.17,8.75,9.58,8.75c5.25,0,8.91-2.58,10.08-2.58c1.83,0,4.33,4.67,4.33,6.33c0,4.17-10.33,6-14.99,6
			c-15.08,0-21.74-8.75-21.74-22.16C715.34-189.98,723.67-196.31,735.58-196.31z M741.58-178.15c0-4.83-1.83-8.41-6-8.41
			c-3.5,0-6.5,2-7.5,8.41H741.58z"/>
		<path class="st0" d="M763.32-193.14c0-1.75,1.5-2.67,5-2.67h2.33c3.5,0,5,0.92,5,2.67v26.41c0,3.25,1.33,5.16,5,5.16
			c3.42,0,5.66-2.92,6.66-4.83v-26.74c0-1.75,1.5-2.67,5-2.67h2.33c3.5,0,5,0.92,5,2.67v26.41c0,8.58,1,10.33,1,12.08
			c0,2-7.25,2.67-9.33,2.67c-2.67,0-2.83-3.5-3.33-5.75c-2.42,3.17-7,6.33-12.41,6.33c-8.33,0-12.25-4.25-12.25-13.49V-193.14z"/>
		<path class="st0" d="M833.87-207.89c0-1.75,1.5-2.67,5-2.67h2.83c3.5,0,5,0.92,5,2.67v44.9h18.58c1.75,0,2.5,1.25,2.5,4.17v2.58
			c0,2.92-0.75,4.17-2.5,4.17H837.2c-2.33,0-3.33-1-3.33-3.33V-207.89z"/>
		<path class="st0" d="M897.51-179.07v-2.75c0-3.17-1.92-4.75-6.5-4.75c-6.08,0-9.66,2.67-10.66,2.67c-1.75,0-4.33-4.92-4.33-6.66
			c0-2.83,6.66-5.75,15.91-5.75c13.16,0,17.91,5.83,17.91,13.91v15.66c0,8.58,1,10.33,1,12.08c0,2-7.25,2.67-9.33,2.67
			c-2.67,0-2.83-3.5-3.33-5.75c-0.58,1.08-4.58,6.33-12.25,6.33c-9,0-12.33-5.33-12.33-12.16S876.35-179.07,897.51-179.07z
			 M890.01-161.16c3.17,0,6.16-2.25,7.5-5.25v-4.58c-7.91,0-11.66,2.17-11.66,6.16C885.85-162.74,887.26-161.16,890.01-161.16z"/>
		<path class="st0" d="M922.66-212.22c0-1.75,1.5-2.67,5-2.67h2.33c3.5,0,5,0.92,5,2.67v18.49c1.75-1.25,4.58-2.58,8.5-2.58
			c11.25,0,17.58,8.83,17.58,22.41c0,14.49-6.58,22.49-15.58,22.49c-5.16,0-9.25-2.67-11.16-6.25l-0.83,3.58
			c-0.42,1.83-2.17,2.17-4.83,2.17h-1c-3.5,0-5-0.92-5-2.67V-212.22z M941.82-161.49c4.58,0,6.75-4.33,6.75-12.41
			c0-8.33-2.5-12.66-7.75-12.66c-2.58,0-4.5,0.83-5.83,1.58v18.58C936.49-163.82,938.66-161.49,941.82-161.49z"/>
		<path class="st0" d="M973.22-163.49c1.08,0,4.25,2.33,8.16,2.33c3.5,0,5.08-1.25,5.08-3.75c0-7.33-16.66-3-16.66-17.91
			c0-8.33,5.91-13.49,15.33-13.49c2.75,0,12.33,0.58,12.33,5.25c0,1.08-1.92,6.16-3.58,6.16c-0.83,0-3.33-1.75-7.08-1.75
			c-2.83,0-4.5,0.92-4.5,3c0,6.08,16.66,2.92,16.66,17.74c0,8.75-6.25,14.49-15.58,14.49c-7.25,0-14.58-1.92-14.58-5.91
			C968.81-158.99,971.47-163.49,973.22-163.49z"/>
	</g>
	<path class="st0" d="M849.23-396.98c0.85-1.7,2.1-3.21,3.66-4.38c1.67-1.24,3.39-2.44,5.14-3.55c3.66-5.18,4.99-11.49,4.03-18.92
		c-0.2-1.52-0.49-3.09-0.88-4.7c-0.46,0-0.93-0.01-1.4-0.01c-10.68-0.18-20.65-2.59-29.97-7.06c-0.85-0.4-1.69-0.82-2.53-1.26
		c-0.84,0.44-1.68,0.86-2.53,1.26c-9.31,4.46-19.28,6.88-29.97,7.06c-0.46,0.01-0.93,0.01-1.39,0.01c-0.39,1.6-0.68,3.15-0.88,4.65
		c-0.98,7.45,0.36,13.78,4.03,18.97c1.75,1.11,3.48,2.3,5.13,3.55c1.57,1.17,2.81,2.68,3.67,4.38l0.72,1.76
		c0.4,1.21,0.61,2.48,0.61,3.78v22.29c0,4.07-0.59,8.1-1.75,11.98c-1.05,3.52-2.17,6.66-3.36,9.41v0.01
		c-1.5,3.47-3.09,6.31-4.78,8.49c-0.23,0.3-0.59,0.48-0.98,0.48h-25.86c-0.8,0-1.57,0.15-2.29,0.45c-0.73,0.3-1.4,0.74-1.97,1.32
		c-1.14,1.14-1.77,2.67-1.76,4.3c0.03,7.33-0.86,11.36-2.73,19.19c-0.66,2.74-0.05,5.58,1.66,7.79c1.71,2.23,4.32,3.54,7.14,3.6
		c20.88,0.51,39.01,8.71,55.44,21.57l1.86,1.46l1.86-1.45c16.43-12.86,34.56-21.07,55.45-21.57c2.82-0.06,5.42-1.37,7.14-3.6
		c1.71-2.22,2.31-5.06,1.66-7.79c-1.87-7.82-2.76-11.85-2.73-19.19c0.01-1.62-0.62-3.14-1.76-4.29c-0.57-0.58-1.24-1.02-1.96-1.32
		c-0.72-0.3-1.5-0.45-2.3-0.45h-25.86c-0.38,0-0.74-0.18-0.98-0.48c-1.69-2.18-3.29-5.03-4.78-8.49v-0.01
		c-1.19-2.75-2.3-5.89-3.35-9.41c-1.16-3.87-1.74-7.9-1.74-11.98v-22.29c0-1.3,0.21-2.57,0.61-3.79L849.23-396.98z"/>
</g>
<g>
	<circle class="st5" cx="827.29" cy="895.13" r="175"/>
	<path class="st0" d="M865.55,828.24c1.49-2.97,3.67-5.6,6.39-7.64c2.9-2.17,5.91-4.25,8.97-6.19c6.38-9.03,8.71-20.04,7.03-32.99
		c-0.35-2.65-0.86-5.39-1.54-8.19c-0.81,0-1.63-0.01-2.44-0.02c-18.63-0.31-36.01-4.52-52.25-12.3c-1.48-0.7-2.95-1.44-4.4-2.2
		c-1.46,0.77-2.92,1.5-4.4,2.2c-16.24,7.78-33.63,11.99-52.26,12.3c-0.81,0.01-1.62,0.02-2.43,0.02c-0.68,2.78-1.19,5.49-1.53,8.12
		c-1.71,12.99,0.63,24.02,7.03,33.08c3.05,1.94,6.07,4.01,8.95,6.18c2.73,2.04,4.9,4.67,6.4,7.64l1.25,3.06
		c0.69,2.1,1.06,4.33,1.06,6.59v38.86c0,7.1-1.03,14.13-3.04,20.88c-1.83,6.14-3.79,11.61-5.86,16.4v0.01
		c-2.61,6.04-5.4,11-8.34,14.81c-0.4,0.53-1.04,0.84-1.71,0.84h-45.1c-1.39,0-2.74,0.27-3.99,0.79c-1.27,0.52-2.44,1.29-3.43,2.3
		c-2,2-3.09,4.66-3.08,7.5c0.05,12.79-1.5,19.81-4.76,33.45c-1.14,4.77-0.09,9.72,2.89,13.59c2.99,3.88,7.53,6.17,12.44,6.28
		c36.41,0.88,68.03,15.19,96.67,37.61l3.24,2.55l3.25-2.54c28.65-22.42,60.27-36.73,96.68-37.62c4.91-0.11,9.45-2.4,12.44-6.28
		c2.98-3.86,4.04-8.82,2.89-13.59c-3.26-13.64-4.81-20.66-4.76-33.46c0.01-2.83-1.08-5.48-3.08-7.48c-0.99-1-2.16-1.78-3.42-2.31
		c-1.26-0.52-2.61-0.79-4.01-0.79h-45.1c-0.66,0-1.3-0.31-1.71-0.84c-2.95-3.81-5.73-8.76-8.34-14.81v-0.01
		c-2.07-4.79-4.02-10.26-5.85-16.4c-2.02-6.76-3.04-13.78-3.04-20.88V837.9c0-2.27,0.37-4.49,1.06-6.6L865.55,828.24z"/>
</g>
<g>
	<circle class="st5" cx="827.29" cy="1441.83" r="175"/>
	<path class="st0" d="M790.29,1378c0.69,2.1,1.06,4.33,1.06,6.59v38.86c0,7.1-1.03,14.13-3.04,20.88
		c-1.83,6.14-3.79,11.61-5.86,16.4v0.01c-2.61,6.04-5.4,11-8.34,14.81c-0.4,0.53-1.04,0.84-1.71,0.84h-45.1
		c-1.39,0-2.74,0.27-3.99,0.79c-1.27,0.52-2.44,1.29-3.43,2.3c-2,2-3.09,4.66-3.08,7.5c0.05,12.79-1.5,19.81-4.76,33.45
		c-1.14,4.77-0.09,9.72,2.89,13.59c2.99,3.89,7.53,6.17,12.44,6.28c36.41,0.88,68.03,15.19,96.67,37.61l3.24,2.55l3.25-2.54
		c28.65-22.43,60.27-36.73,96.68-37.62c4.91-0.11,9.45-2.4,12.44-6.28c2.98-3.86,4.04-8.82,2.89-13.59
		c-3.26-13.64-4.81-20.66-4.76-33.46c0.01-2.83-1.08-5.48-3.08-7.48c-0.99-1-2.16-1.78-3.42-2.31c-1.26-0.52-2.61-0.79-4.01-0.79
		h-45.1c-0.66,0-1.3-0.31-1.71-0.84c-2.95-3.81-5.73-8.76-8.34-14.81v-0.01c-2.07-4.79-4.02-10.26-5.85-16.4
		c-2.02-6.76-3.04-13.78-3.04-20.88v-38.86c0-2.27,0.37-4.49,1.06-6.6l1.25-3.05c1.49-2.97,3.67-5.6,6.39-7.64
		c2.9-2.17,5.91-4.25,8.97-6.19c6.38-9.03,8.71-20.04,7.03-32.99c-0.35-2.65-0.86-5.38-1.54-8.19c-0.81,0-1.63-0.01-2.44-0.02
		c-18.63-0.31-36.01-4.52-52.25-12.3c-1.48-0.7-2.95-1.44-4.4-2.2c-1.46,0.77-2.92,1.5-4.4,2.2c-16.24,7.78-33.63,11.99-52.26,12.3
		c-0.81,0.01-1.62,0.02-2.43,0.02c-0.68,2.78-1.19,5.49-1.53,8.12c-1.71,12.99,0.63,24.02,7.03,33.08c3.05,1.94,6.07,4.01,8.95,6.18
		c2.73,2.04,4.9,4.67,6.4,7.64L790.29,1378z"/>
</g>
<g>
	<circle class="st2" cx="250" cy="1441.83" r="175"/>
	<path class="st1" d="M213,1378c0.69,2.1,1.06,4.33,1.06,6.59v38.86c0,7.1-1.03,14.13-3.04,20.88c-1.83,6.14-3.79,11.61-5.86,16.4
		v0.01c-2.61,6.04-5.4,11-8.34,14.81c-0.4,0.53-1.04,0.84-1.71,0.84H150c-1.39,0-2.74,0.27-3.99,0.79c-1.27,0.52-2.44,1.29-3.43,2.3
		c-2,2-3.09,4.66-3.08,7.5c0.05,12.79-1.5,19.81-4.76,33.45c-1.14,4.77-0.09,9.72,2.89,13.59c2.99,3.89,7.53,6.17,12.44,6.28
		c36.41,0.88,68.03,15.19,96.67,37.61l3.24,2.55l3.25-2.54c28.65-22.43,60.27-36.73,96.68-37.62c4.91-0.11,9.45-2.4,12.44-6.28
		c2.98-3.86,4.04-8.82,2.89-13.59c-3.26-13.64-4.81-20.66-4.76-33.46c0.01-2.83-1.08-5.48-3.08-7.48c-0.99-1-2.16-1.78-3.42-2.31
		c-1.26-0.52-2.61-0.79-4.01-0.79h-45.1c-0.66,0-1.3-0.31-1.71-0.84c-2.95-3.81-5.73-8.76-8.34-14.81v-0.01
		c-2.07-4.79-4.02-10.26-5.85-16.4c-2.02-6.76-3.04-13.78-3.04-20.88v-38.86c0-2.27,0.37-4.49,1.06-6.6l1.25-3.05
		c1.49-2.97,3.67-5.6,6.39-7.64c2.9-2.17,5.91-4.25,8.97-6.19c6.38-9.03,8.71-20.04,7.03-32.99c-0.35-2.65-0.86-5.38-1.54-8.19
		c-0.81,0-1.63-0.01-2.44-0.02c-18.63-0.31-36.01-4.52-52.25-12.3c-1.48-0.7-2.95-1.44-4.4-2.2c-1.46,0.77-2.92,1.5-4.4,2.2
		c-16.24,7.78-33.63,11.99-52.26,12.3c-0.81,0.01-1.62,0.02-2.43,0.02c-0.68,2.78-1.19,5.49-1.53,8.12
		c-1.71,12.99,0.63,24.02,7.03,33.08c3.05,1.94,6.07,4.01,8.95,6.18c2.73,2.04,4.9,4.67,6.4,7.64L213,1378z"/>
</g>
</svg>
