<?xml version="1.0" encoding="utf-8"?>
<!-- Generator: Adobe Illustrator 27.5.0, SVG Export Plug-In . SVG Version: 6.00 Build 0)  -->
<svg version="1.1" id="Layer_1" xmlns="http://www.w3.org/2000/svg" xmlns:xlink="http://www.w3.org/1999/xlink" x="0px" y="0px"
	 viewBox="0 0 500 500" style="enable-background:new 0 0 500 500;" xml:space="preserve">
<style type="text/css">
	.st0{fill:#FFFFFF;}
	.st1{fill:#0A0203;}
</style>
<g>
	<g>
		<path class="st1" d="M250,293.57c-58.17,0-105.49-47.32-105.49-105.49c0-58.17,47.32-105.49,105.49-105.49
			s105.49,47.32,105.49,105.49C355.49,246.25,308.17,293.57,250,293.57z M250,92.85c-52.51,0-95.23,42.72-95.23,95.23
			c0,52.51,42.72,95.23,95.23,95.23c52.51,0,95.23-42.72,95.23-95.23C345.23,135.57,302.51,92.85,250,92.85z"/>
	</g>
	<g>
		<g>
			<path class="st1" d="M80.75,339.64c0-2.33,1-3.33,3.33-3.33h18.66c17.16,0,26.66,10.33,26.66,29.15s-9.5,29.15-26.66,29.15H84.08
				c-2.33,0-3.33-1-3.33-3.33V339.64z M102.74,383.71c8.91,0,13.49-6.41,13.49-18.24s-4.58-18.24-13.49-18.24h-9.08v36.48H102.74z"
				/>
		</g>
		<g>
			<path class="st1" d="M158.29,350.39c13.08,0,17.99,9.91,17.99,21.49c0,1.42-3.17,4.91-4.25,4.91H150.8
				c0.58,6.66,4.16,8.75,9.58,8.75c5.25,0,8.91-2.58,10.08-2.58c1.83,0,4.33,4.67,4.33,6.33c0,4.17-10.33,6-14.99,6
				c-15.08,0-21.74-8.75-21.74-22.16C138.05,356.72,146.38,350.39,158.29,350.39z M164.29,368.55c0-4.83-1.83-8.41-6-8.41
				c-3.5,0-6.5,2-7.5,8.41H164.29z"/>
		</g>
		<g>
			<path class="st1" d="M186.03,353.55c0-1.75,1.5-2.67,5-2.67h2.33c3.5,0,5,0.92,5,2.67v26.41c0,3.25,1.33,5.16,5,5.16
				c3.42,0,5.66-2.92,6.66-4.83v-26.74c0-1.75,1.5-2.67,5-2.67h2.33c3.5,0,5,0.92,5,2.67v26.41c0,8.58,1,10.33,1,12.08
				c0,2-7.25,2.67-9.33,2.67c-2.67,0-2.83-3.5-3.33-5.75c-2.42,3.17-7,6.33-12.41,6.33c-8.33,0-12.24-4.25-12.24-13.49V353.55z"/>
		</g>
		<g>
			<path class="st1" d="M256.58,338.81c0-1.75,1.5-2.67,5-2.67h2.83c3.5,0,5,0.92,5,2.67v44.9h18.58c1.75,0,2.5,1.25,2.5,4.17v2.58
				c0,2.92-0.75,4.17-2.5,4.17h-28.07c-2.33,0-3.33-1-3.33-3.33V338.81z"/>
		</g>
		<g>
			<path class="st1" d="M320.22,367.63v-2.75c0-3.17-1.92-4.75-6.5-4.75c-6.08,0-9.66,2.67-10.66,2.67c-1.75,0-4.33-4.92-4.33-6.66
				c0-2.83,6.66-5.75,15.91-5.75c13.16,0,17.91,5.83,17.91,13.91v15.66c0,8.58,1,10.33,1,12.08c0,2-7.25,2.67-9.33,2.67
				c-2.67,0-2.83-3.5-3.33-5.75c-0.58,1.08-4.58,6.33-12.25,6.33c-9,0-12.33-5.33-12.33-12.16S299.06,367.63,320.22,367.63z
				 M312.72,385.54c3.17,0,6.16-2.25,7.5-5.25v-4.58c-7.91,0-11.66,2.17-11.66,6.16C308.55,383.96,309.97,385.54,312.72,385.54z"/>
		</g>
		<g>
			<path class="st1" d="M345.37,334.48c0-1.75,1.5-2.67,5-2.67h2.33c3.5,0,5,0.92,5,2.67v18.49c1.75-1.25,4.58-2.58,8.5-2.58
				c11.25,0,17.58,8.83,17.58,22.41c0,14.49-6.58,22.49-15.58,22.49c-5.16,0-9.25-2.67-11.16-6.25l-0.83,3.58
				c-0.42,1.83-2.17,2.17-4.83,2.17h-1c-3.5,0-5-0.92-5-2.67V334.48z M364.53,385.21c4.58,0,6.75-4.33,6.75-12.41
				c0-8.33-2.5-12.66-7.75-12.66c-2.58,0-4.5,0.83-5.83,1.58v18.58C359.2,382.88,361.36,385.21,364.53,385.21z"/>
		</g>
		<g>
			<path class="st1" d="M395.93,383.21c1.08,0,4.25,2.33,8.16,2.33c3.5,0,5.08-1.25,5.08-3.75c0-7.33-16.66-3-16.66-17.91
				c0-8.33,5.91-13.49,15.33-13.49c2.75,0,12.33,0.58,12.33,5.25c0,1.08-1.92,6.16-3.58,6.16c-0.83,0-3.33-1.75-7.08-1.75
				c-2.83,0-4.5,0.92-4.5,3c0,6.08,16.66,2.92,16.66,17.74c0,8.75-6.25,14.49-15.58,14.49c-7.25,0-14.58-1.92-14.58-5.91
				C391.51,387.71,394.18,383.21,395.93,383.21z"/>
		</g>
	</g>
	<g>
		<path class="st1" d="M271.94,149.72c0.85-1.7,2.1-3.21,3.66-4.38c1.67-1.24,3.39-2.44,5.14-3.55c3.66-5.18,4.99-11.49,4.03-18.92
			c-0.2-1.52-0.49-3.09-0.88-4.7c-0.46,0-0.93-0.01-1.4-0.01c-10.68-0.18-20.65-2.59-29.97-7.06c-0.85-0.4-1.69-0.82-2.53-1.26
			c-0.84,0.44-1.68,0.86-2.53,1.26c-9.31,4.46-19.28,6.88-29.97,7.06c-0.46,0.01-0.93,0.01-1.39,0.01c-0.39,1.6-0.68,3.15-0.88,4.65
			c-0.98,7.45,0.36,13.78,4.03,18.97c1.75,1.11,3.48,2.3,5.13,3.55c1.57,1.17,2.81,2.68,3.67,4.38l0.72,1.76
			c0.4,1.21,0.61,2.48,0.61,3.78v22.29c0,4.07-0.59,8.1-1.75,11.98c-1.05,3.52-2.17,6.66-3.36,9.41v0.01
			c-1.5,3.47-3.09,6.31-4.78,8.49c-0.23,0.3-0.59,0.48-0.98,0.48h-25.86c-0.8,0-1.57,0.15-2.29,0.45c-0.73,0.3-1.4,0.74-1.97,1.32
			c-1.14,1.14-1.77,2.67-1.76,4.3c0.03,7.33-0.86,11.36-2.73,19.19c-0.66,2.74-0.05,5.58,1.66,7.79c1.71,2.23,4.32,3.54,7.14,3.6
			c20.88,0.51,39.01,8.71,55.44,21.57l1.86,1.46l1.86-1.45c16.43-12.86,34.56-21.07,55.45-21.57c2.82-0.06,5.42-1.37,7.14-3.6
			c1.71-2.22,2.31-5.06,1.66-7.79c-1.87-7.82-2.76-11.85-2.73-19.19c0.01-1.62-0.62-3.14-1.76-4.29c-0.57-0.58-1.24-1.02-1.96-1.32
			c-0.72-0.3-1.5-0.45-2.3-0.45h-25.86c-0.38,0-0.74-0.18-0.98-0.48c-1.69-2.18-3.29-5.03-4.78-8.49v-0.01
			c-1.19-2.75-2.3-5.89-3.35-9.41c-1.16-3.87-1.74-7.9-1.74-11.98v-22.29c0-1.3,0.21-2.57,0.61-3.79L271.94,149.72z"/>
	</g>
</g>
</svg>
